<svg xmlns="http://www.w3.org/2000/svg" viewBox="0 0 256 256" role="img" aria-labelledby="title desc">
  <title>Favicon La Otra Pucela</title>
  <desc>Monograma con una O mayuscula sobre fondo morado.</desc>
  <rect width="256" height="256" rx="56" fill="#5e2a70" />
  <path
    fill="#f6efe8"
    fill-rule="evenodd"
    d="M128 38C171 38 203 74 203 128C203 182 171 218 128 218C85 218 53 182 53 128C53 74 85 38 128 38ZM128 66C101 66 81 89 81 128C81 167 101 190 128 190C155 190 175 167 175 128C175 89 155 66 128 66Z"
  />
  <path
    fill="#f6efe8"
    d="M85 57C95 48 110 43 128 43C146 43 161 48 171 57L165 71C155 64 143 61 128 61C113 61 101 64 91 71L85 57Z"
  />
  <path
    fill="#f6efe8"
    d="M85 199C95 208 110 213 128 213C146 213 161 208 171 199L165 185C155 192 143 195 128 195C113 195 101 192 91 185L85 199Z"
  />
</svg>
